<svg width="513" height="349" viewBox="0 0 513 349" fill="none" xmlns="http://www.w3.org/2000/svg">
<path d="M263.71 178.073C263.71 178.073 262.82 144.503 284.99 133.626C307.16 122.749 310.71 123.73 310.71 123.73C310.71 123.73 315.14 133.626 312.48 137.401C309.82 141.187 308.1 136.399 308.1 135.514C308.1 134.629 313.42 125.767 327.05 125.767C340.68 125.767 347.83 133.04 347.83 133.04C347.83 133.04 347.66 140.483 343.84 143.853C343.84 143.853 349.33 136.58 358.14 137.113C358.14 137.113 370.44 147.926 374.6 155.903C374.6 155.903 363.96 171.685 345 173.456C345 173.456 354.64 175.407 357.14 178.062C357.14 178.062 323.72 191.008 317.07 184.973C310.42 178.937 320.06 179.118 322.89 182.136C325.72 185.154 331.37 193.834 331.37 193.834C331.37 193.834 304.27 201.459 298.95 187.98L300.45 198.622C300.45 198.622 274.84 193.482 267.36 184.791C259.88 176.1 285.15 163.154 298.12 159.966C311.09 156.777 336.53 154.474 344.18 156.063M257.06 174.522C257.06 174.522 244.09 148.993 217.16 146.508C217.16 146.508 213.17 155.37 218.49 160.52C218.49 160.52 208.85 141.549 175.92 150.411C175.92 150.411 181.91 165.66 186.23 165.308C190.55 164.957 191.05 158.569 186.4 158.398C181.74 158.217 162.04 158.313 151.32 170.63C151.32 170.63 159.63 177.369 166.28 176.303C166.28 176.303 153.98 177.369 143.67 205.383C143.67 205.383 166.28 215.663 178.59 211.056C178.59 211.056 174.27 224.535 169.28 225.239C169.28 225.239 197.21 224.173 200.37 213.893C203.53 203.613 193.22 207.505 193.89 210.704C194.56 213.904 201.54 225.239 201.54 225.239C201.54 225.239 219.83 226.306 228.14 211.056C228.14 211.056 230.47 220.632 226.48 223.821C226.48 223.821 260.4 200.062 259.4 181.624C258.4 163.186 185.55 183.768 177.71 192M195.2 164.957C195.2 164.957 216.15 170.982 215.49 182.328M233.78 182.328C233.78 182.328 229.79 197.577 211.5 201.48M325.89 142.136C325.89 142.136 305.69 149.238 303.99 161.171M287.98 169.563C287.98 169.563 315.25 173.114 328.88 168.145M281.89 127.953C281.89 127.953 297.41 103.842 288.98 84.4552C288.98 84.4552 278.34 88.7101 278.34 92.4958C278.34 92.4958 287.21 54.2019 274.35 36.7025C274.35 36.7025 267.7 39.5391 266.81 45.6815C266.81 45.6815 247.74 15.8974 240.21 12.5809C240.21 12.5809 236 20.6215 237.55 30.3149C237.55 30.3149 225.8 4.30579 212.28 1C212.28 1 207.18 10.6934 208.95 17.3157C208.95 17.3157 186.78 1.47987 179.24 7.15304C179.24 7.15304 172.59 26.3053 179.24 36.2333C179.24 36.2333 174.58 34.3458 170.82 36.9478C170.82 36.9478 167.27 62.0078 189 76.9052C189 76.9052 178.58 75.4869 177.69 78.7927C176.8 82.0985 181.24 99.3633 204.74 110.24C204.74 110.24 193.88 110.71 193.21 112.608C193.21 112.608 207.84 138.617 216.04 142.157M260.6 160.105C260.6 160.105 213.6 59.8644 209.61 45.6815C205.62 31.4986 223.8 31.264 228.45 42.6103C236.82 63.0316 228.45 98.4569 228.45 98.4569M265.26 92.7304C265.26 92.7304 264.59 127.015 251.29 136.228M251.29 204.317C251.29 204.317 234.77 223.106 236.77 239.774C236.77 239.774 251.73 241.907 255.39 237.289C255.39 237.289 240.43 246.514 240.76 277.002C240.76 277.002 250.07 278.068 255.39 270.614C255.39 270.614 240.76 285.149 253.06 312.459C253.06 312.459 263.36 305.015 263.7 297.21C263.7 297.21 258.38 315.295 276.01 334.8C276.01 334.8 281.66 332.315 283.66 323.453C283.66 323.453 293.64 340.825 308.6 347.564C308.6 347.564 323.56 335.503 322.23 309.622C322.23 309.622 329.55 314.592 336.53 316.01C336.53 316.01 345.84 298.639 338.53 275.935C338.53 275.935 346.84 282.323 350.5 280.19C350.5 280.19 345.18 242.6 327.89 235.509C327.89 235.509 337.87 236.575 339.86 233.738C339.86 233.738 329.18 201.47 309.27 198.633M265.26 190.134C265.26 190.134 280.36 203.25 291.49 246.514C302.62 289.777 306.61 302.893 302.29 308.929C297.97 314.965 286.66 314.602 287.33 305.378C288 296.154 288.66 261.048 301.3 253.253M287.98 212.475C287.98 212.475 275.01 222.051 272.02 240.489C269.03 258.926 270.02 267.799 270.02 267.799M296.3 101.475C296.3 101.475 304.95 80.6696 324.23 71.5733C324.23 71.5733 329.55 73.7061 330.22 86.524C330.22 86.524 340.2 58.926 363.47 56.7932C386.75 54.6605 390.74 61.0481 390.74 61.0481C390.74 61.0481 402.38 83.0796 390.74 78.9207C379.1 74.7618 398.06 63.1809 408.03 63.8847C418 64.5885 447.27 73.3435 461.9 92.7304L455.25 108.566C455.25 108.566 473.21 101.475 478.53 102.893C483.85 104.311 510.45 140.014 512.45 160.105C512.45 160.105 492.5 185.175 464.56 185.879C464.56 185.879 461.23 195.796 467.22 202.888C467.22 202.888 408.14 210.214 421.11 197.449C434.08 184.685 423.11 218.02 427.32 225.25C427.32 225.25 389.74 233.386 374.61 217.785L368.79 231.968C368.79 231.968 348.58 229.377 335.54 212.464M481.85 146.508C434.63 130.555 381.42 144.162 381.42 144.162C381.42 144.162 386.08 173.093 425.32 179.491M437.29 107.148C437.29 107.148 416.01 117.119 413.35 142.637M374.61 89.4139C374.61 89.4139 360.14 97.721 353.49 123.709M198.53 130.438C198.53 130.438 165.61 96.0362 134.89 111.627L140.17 121.757C140.17 121.757 121.04 108.875 91.36 115.956C61.68 123.037 61.02 138.393 61.02 138.393C61.02 138.393 71.36 157.695 75.53 147.67C79.7 137.646 53.1 146.711 45.85 150.55C38.59 154.389 20.13 170.406 16.17 183.192C16.17 183.192 37.94 184.461 38.6 187.02C39.26 189.579 5.62 198.537 1 232.139C1 232.139 12.21 244.615 30.68 249.734C30.68 249.734 45.85 247.943 47.17 242.44C47.17 242.44 46.29 254 42.99 257.092C42.99 257.092 50.9 265.73 76.19 269.356C76.19 269.356 107.5 261.454 98.1 256.068C88.7 250.683 95.88 274.272 90.7 280.873C90.7 280.873 105.87 292.389 136.65 287.271C136.65 287.271 151.16 282.792 156.44 272.128C156.44 272.128 158.42 285.351 156.66 289.83C156.66 289.83 206.13 280.446 209.87 254.842C213.61 229.238 214.49 259.108 214.49 262.733C214.49 262.733 237.79 250.15 239.99 237.343M138.67 192.725C138.67 192.725 72.61 193.194 25.61 227.244M44.67 179.491C44.67 179.491 88.57 185.079 101.87 204.509M135.57 204.509C135.57 204.509 132.47 221.571 108.97 244.743M104.53 150.646C104.53 150.646 116.94 148.278 135.57 150.646C154.19 153.013 158.18 159.123 158.18 159.123" stroke="black" stroke-miterlimit="10"/>
</svg>
